<?xml version="1.0" encoding="UTF-8"?>
<!DOCTYPE svg PUBLIC "-//W3C//DTD SVG 1.1//EN" "http://www.w3.org/Graphics/SVG/1.1/DTD/svg11.dtd">
<svg xmlns="http://www.w3.org/2000/svg" version="1.1" width="50px" height="50px" style="shape-rendering:geometricPrecision; text-rendering:geometricPrecision; image-rendering:optimizeQuality; fill-rule:evenodd; clip-rule:evenodd" xmlns:xlink="http://www.w3.org/1999/xlink">
<g><path style="opacity:0.909" fill="#000000" d="M 34.5,-0.5 C 35.8333,-0.5 37.1667,-0.5 38.5,-0.5C 41.8333,3.5 45.5,7.16667 49.5,10.5C 49.5,11.1667 49.5,11.8333 49.5,12.5C 45.7024,15.7961 42.0357,19.2961 38.5,23C 37.2068,23.49 35.8734,23.6567 34.5,23.5C 34.9713,19.4975 36.9713,16.3308 40.5,14C 26.8374,13.5001 13.1707,13.3334 -0.5,13.5C -0.5,12.1667 -0.5,10.8333 -0.5,9.5C 13.1707,9.66657 26.8374,9.4999 40.5,9C 36.9713,6.66919 34.9713,3.50252 34.5,-0.5 Z"/></g>
<g><path style="opacity:0.907" fill="#000000" d="M 49.5,35.5 C 49.5,36.8333 49.5,38.1667 49.5,39.5C 35.8293,39.3334 22.1626,39.5001 8.5,40C 12.0287,42.3308 14.0287,45.4975 14.5,49.5C 13.1667,49.5 11.8333,49.5 10.5,49.5C 7.16667,45.5 3.5,41.8333 -0.5,38.5C -0.5,37.8333 -0.5,37.1667 -0.5,36.5C 3.2976,33.2039 6.96427,29.7039 10.5,26C 11.7932,25.51 13.1266,25.3433 14.5,25.5C 14.0287,29.5025 12.0287,32.6692 8.5,35C 22.1626,35.4999 35.8293,35.6666 49.5,35.5 Z"/></g>
</svg>
